# xmcd
#
# Track frame offsets:
#	150
#	18315
#	28835
#	46467
#	60042
#	73462
#	88595
#	104707
#	118360
#	132105
#	148770
#	164200
#
# Disc length: 2400 seconds
#
# Revision: 0
# Processed by: cddbd v1.4PL0 Copyright (c) Steve Scherf et al.
# Submitted via: EasyCDDAExtractor 4.6.0.1
#
DISCID=b7095e0c
DTITLE=Jump n' Jive - I'm a Dirty Bird
DYEAR=1998
DGENRE=Swing
TTITLE0=Dirty Bird
TTITLE1=Keep it on the Two and Four
TTITLE2=It Should've Been Me
TTITLE3=Jumpin' and Jivin' at the Riverside
TTITLE4=Plastic Preacher
TTITLE5=Choo Choo Ch' Boogie
TTITLE6=Disappear
TTITLE7=Lost on los Olas
TTITLE8=Wrap it Up Baby
TTITLE9=Trouble
TTITLE10=Are Those Things Really Real
TTITLE11=Caldonia
EXTD=
EXTT0=
EXTT1=
EXTT2=
EXTT3=
EXTT4=
EXTT5=
EXTT6=
EXTT7=
EXTT8=
EXTT9=
EXTT10=
EXTT11=
PLAYORDER=
